<svg width="24" height="25" viewBox="0 0 24 25" fill="none" xmlns="http://www.w3.org/2000/svg">
<path fill-rule="evenodd" clip-rule="evenodd" d="M9.308 4.50001H14.829C14.8863 4.50001 14.9433 4.50367 15 4.51101C17.2473 4.66817 18.9924 6.5332 19 8.78601V15.215C18.9917 17.5871 17.0641 19.5044 14.692 19.5H9.308C6.93551 19.5044 5.00772 17.5865 5 15.214V8.78601C5.00772 6.41353 6.93551 4.49558 9.308 4.50001Z" stroke="#0085FF" stroke-width="1.5" stroke-linecap="round" stroke-linejoin="round"/>
<path d="M15 17.2497C15.4142 17.2497 15.75 16.914 15.75 16.4997C15.75 16.0855 15.4142 15.7497 15 15.7497V17.2497ZM9 15.7497C8.58579 15.7497 8.25 16.0855 8.25 16.4997C8.25 16.914 8.58579 17.2497 9 17.2497V15.7497ZM19 9.53574C19.4142 9.53574 19.75 9.19996 19.75 8.78574C19.75 8.37153 19.4142 8.03574 19 8.03574V9.53574ZM15 8.78574H14.25C14.25 9.19996 14.5858 9.53574 15 9.53574V8.78574ZM15.75 4.51074C15.75 4.09653 15.4142 3.76074 15 3.76074C14.5858 3.76074 14.25 4.09653 14.25 4.51074H15.75ZM14.5303 12.0301C14.8232 11.7372 14.8232 11.2623 14.5303 10.9694C14.2374 10.6765 13.7626 10.6765 13.4697 10.9694L14.5303 12.0301ZM11.4697 12.9694C11.1768 13.2623 11.1768 13.7372 11.4697 14.0301C11.7626 14.323 12.2374 14.323 12.5303 14.0301L11.4697 12.9694ZM11.4697 14.0301C11.7626 14.323 12.2374 14.323 12.5303 14.0301C12.8232 13.7372 12.8232 13.2623 12.5303 12.9694L11.4697 14.0301ZM10.5303 10.9694C10.2374 10.6765 9.76256 10.6765 9.46967 10.9694C9.17678 11.2623 9.17678 11.7372 9.46967 12.0301L10.5303 10.9694ZM11.25 13.4997C11.25 13.914 11.5858 14.2497 12 14.2497C12.4142 14.2497 12.75 13.914 12.75 13.4997H11.25ZM12.75 7.49974C12.75 7.08553 12.4142 6.74974 12 6.74974C11.5858 6.74974 11.25 7.08553 11.25 7.49974H12.75ZM15 15.7497H9V17.2497H15V15.7497ZM19 8.03574H15V9.53574H19V8.03574ZM15.75 8.78574V4.51074H14.25V8.78574H15.75ZM13.4697 10.9694L11.4697 12.9694L12.5303 14.0301L14.5303 12.0301L13.4697 10.9694ZM12.5303 12.9694L10.5303 10.9694L9.46967 12.0301L11.4697 14.0301L12.5303 12.9694ZM12.75 13.4997V7.49974H11.25V13.4997H12.75Z" fill="#0085FF"/>
</svg>
