<svg width="24" height="24" viewBox="0 0 24 24" fill="none" xmlns="http://www.w3.org/2000/svg">
<path d="M15.2 5.8577C16.3854 6.42079 17.2 7.59005 17.2 8.94118C17.2 10.2923 16.3854 11.4616 15.2 12.0247M16.8 16.0272C18.0092 16.5503 19.098 17.4026 20 18.5M4 18.5C5.55719 16.6055 7.67134 15.4412 10 15.4412C12.3287 15.4412 14.4428 16.6055 16 18.5M13.6 8.94118C13.6 10.8417 11.9882 12.3824 10 12.3824C8.01177 12.3824 6.4 10.8417 6.4 8.94118C6.4 7.04067 8.01177 5.5 10 5.5C11.9882 5.5 13.6 7.04067 13.6 8.94118Z" stroke="#5471CF" stroke-width="1.5" stroke-linecap="round" stroke-linejoin="round"/>
</svg>
