<svg width="24" height="24" viewBox="0 0 24 24" fill="none" xmlns="http://www.w3.org/2000/svg">
<path d="M6 23C7.55719 21.2512 9.67134 20.1765 12 20.1765C14.3287 20.1765 16.4428 21.2512 18 23M15 14.1765C15 15.9308 13.6569 17.3529 12 17.3529C10.3431 17.3529 9 15.9308 9 14.1765C9 12.4222 10.3431 11 12 11C13.6569 11 15 12.4222 15 14.1765Z" stroke="#5959AB" stroke-width="1.5" stroke-linecap="round" stroke-linejoin="round"/>
<path d="M14.5723 1.25C14.1581 1.25 13.8223 1.58579 13.8223 2C13.8223 2.41421 14.1581 2.75 14.5723 2.75V1.25ZM18.0008 2.75C18.4151 2.75 18.7508 2.41421 18.7508 2C18.7508 1.58579 18.4151 1.25 18.0008 1.25V2.75ZM18.7508 2.00002C18.7508 1.5858 18.4151 1.25002 18.0008 1.25002C17.5866 1.25002 17.2508 1.5858 17.2508 2.00002H18.7508ZM17.2508 5.42859C17.2508 5.8428 17.5866 6.17859 18.0008 6.17859C18.4151 6.17859 18.7508 5.8428 18.7508 5.42859H17.2508ZM18.5303 2.53035C18.8232 2.23745 18.8232 1.76258 18.5303 1.46969C18.2374 1.17679 17.7626 1.17679 17.4697 1.46969L18.5303 2.53035ZM12 8.00002L11.4697 8.53035C11.7626 8.82324 12.2374 8.82324 12.5303 8.53035L12 8.00002ZM9.42857 5.42859L9.9589 4.89826C9.66601 4.60537 9.19113 4.60537 8.89824 4.89826L9.42857 5.42859ZM5.46967 8.32683C5.17678 8.61972 5.17678 9.0946 5.46967 9.38749C5.76256 9.68038 6.23744 9.68038 6.53033 9.38749L5.46967 8.32683ZM14.5723 2.75H18.0008V1.25H14.5723V2.75ZM17.2508 2.00002V5.42859H18.7508V2.00002H17.2508ZM17.4697 1.46969L11.4697 7.46969L12.5303 8.53035L18.5303 2.53035L17.4697 1.46969ZM12.5303 7.46969L9.9589 4.89826L8.89824 5.95892L11.4697 8.53035L12.5303 7.46969ZM8.89824 4.89826L5.46967 8.32683L6.53033 9.38749L9.9589 5.95892L8.89824 4.89826Z" fill="#5959AB"/>
</svg>
