<svg width="24" height="24" viewBox="0 0 24 24" fill="none" xmlns="http://www.w3.org/2000/svg">
<path fill-rule="evenodd" clip-rule="evenodd" d="M5 5.75C4.30965 5.75 3.75 6.30964 3.75 7V17C3.75 17.6904 4.30965 18.25 5 18.25H19C19.6904 18.25 20.25 17.6904 20.25 17V7C20.25 6.30964 19.6904 5.75 19 5.75H5ZM2.25 7C2.25 5.48122 3.48122 4.25 5 4.25H19C20.5188 4.25 21.75 5.48122 21.75 7V17C21.75 18.5188 20.5188 19.75 19 19.75H5C3.48122 19.75 2.25 18.5188 2.25 17V7Z" fill="white"/>
<path fill-rule="evenodd" clip-rule="evenodd" d="M2.37597 6.58397C2.60573 6.23933 3.07138 6.1462 3.41603 6.37596L12 12.0986L20.584 6.37596C20.9286 6.1462 21.3943 6.23933 21.624 6.58397C21.8538 6.92862 21.7607 7.39427 21.416 7.62404L12.416 13.624C12.1641 13.792 11.8359 13.792 11.584 13.624L2.58398 7.62404C2.23933 7.39427 2.1462 6.92862 2.37597 6.58397Z" fill="white"/>
</svg>
