<svg width="32" height="32" viewBox="0 0 32 32" fill="none" xmlns="http://www.w3.org/2000/svg">
<rect width="32" height="32" rx="16" fill="#FFCF10" fill-opacity="0.16"/>
<path d="M9.6 16.8925L10.8597 21.9314C10.8951 22.0731 10.9129 22.1439 10.9338 22.2058C11.1385 22.8102 11.6828 23.2352 12.3188 23.2872C12.3839 23.2925 12.457 23.2925 12.603 23.2925C12.786 23.2925 12.8774 23.2925 12.9545 23.285C13.716 23.2112 14.3187 22.6085 14.3925 21.847C14.4 21.7699 14.4 21.6785 14.4 21.4955V10.0925M21.2 16.4925C22.7464 16.4925 24 15.2389 24 13.6925C24 12.1461 22.7464 10.8925 21.2 10.8925M14.6 10.0925H11.6C9.61177 10.0925 8 11.7043 8 13.6925C8 15.6807 9.61178 17.2925 11.6 17.2925H14.6C16.0131 17.2925 17.7418 18.05 19.0754 18.777C19.8535 19.2011 20.2425 19.4132 20.4973 19.382C20.7335 19.3531 20.9122 19.247 21.0507 19.0534C21.2 18.8446 21.2 18.4269 21.2 17.5915V9.79353C21.2 8.9581 21.2 8.54039 21.0507 8.33162C20.9122 8.13803 20.7335 8.03195 20.4973 8.00301C20.2425 7.9718 19.8535 8.18387 19.0754 8.60799C17.7418 9.335 16.0131 10.0925 14.6 10.0925Z" stroke="#FFCF10" stroke-width="1.5" stroke-linecap="round" stroke-linejoin="round"/>
</svg>
