<svg width="32" height="32" viewBox="0 0 32 32" fill="none" xmlns="http://www.w3.org/2000/svg">
<rect width="32" height="32" rx="16" fill="#169F13" fill-opacity="0.16"/>
<path d="M12.6667 8H10.6667C9.95942 8 9.28115 8.28095 8.78105 8.78105C8.28095 9.28115 8 9.95942 8 10.6667V12.6667C8 13.3739 8.28095 14.0522 8.78105 14.5523C9.28115 15.0524 9.95942 15.3333 10.6667 15.3333H12.6667C13.3739 15.3333 14.0522 15.0524 14.5523 14.5523C15.0524 14.0522 15.3333 13.3739 15.3333 12.6667V10.6667C15.3333 9.95942 15.0524 9.28115 14.5523 8.78105C14.0522 8.28095 13.3739 8 12.6667 8ZM14 12.6667C14 13.0203 13.8595 13.3594 13.6095 13.6095C13.3594 13.8595 13.0203 14 12.6667 14H10.6667C10.313 14 9.97391 13.8595 9.72386 13.6095C9.47381 13.3594 9.33333 13.0203 9.33333 12.6667V10.6667C9.33333 10.313 9.47381 9.97391 9.72386 9.72386C9.97391 9.47381 10.313 9.33333 10.6667 9.33333H12.6667C13.0203 9.33333 13.3594 9.47381 13.6095 9.72386C13.8595 9.97391 14 10.313 14 10.6667V12.6667ZM21.3333 8H19.3333C18.6261 8 17.9478 8.28095 17.4477 8.78105C16.9476 9.28115 16.6667 9.95942 16.6667 10.6667V12.6667C16.6667 13.3739 16.9476 14.0522 17.4477 14.5523C17.9478 15.0524 18.6261 15.3333 19.3333 15.3333H21.3333C22.0406 15.3333 22.7189 15.0524 23.219 14.5523C23.719 14.0522 24 13.3739 24 12.6667V10.6667C24 9.95942 23.719 9.28115 23.219 8.78105C22.7189 8.28095 22.0406 8 21.3333 8ZM22.6667 12.6667C22.6667 13.0203 22.5262 13.3594 22.2761 13.6095C22.0261 13.8595 21.687 14 21.3333 14H19.3333C18.9797 14 18.6406 13.8595 18.3905 13.6095C18.1405 13.3594 18 13.0203 18 12.6667V10.6667C18 10.313 18.1405 9.97391 18.3905 9.72386C18.6406 9.47381 18.9797 9.33333 19.3333 9.33333H21.3333C21.687 9.33333 22.0261 9.47381 22.2761 9.72386C22.5262 9.97391 22.6667 10.313 22.6667 10.6667V12.6667ZM12.6667 16.6667H10.6667C9.95942 16.6667 9.28115 16.9476 8.78105 17.4477C8.28095 17.9478 8 18.6261 8 19.3333V21.3333C8 22.0406 8.28095 22.7189 8.78105 23.219C9.28115 23.719 9.95942 24 10.6667 24H12.6667C13.3739 24 14.0522 23.719 14.5523 23.219C15.0524 22.7189 15.3333 22.0406 15.3333 21.3333V19.3333C15.3333 18.6261 15.0524 17.9478 14.5523 17.4477C14.0522 16.9476 13.3739 16.6667 12.6667 16.6667ZM14 21.3333C14 21.687 13.8595 22.0261 13.6095 22.2761C13.3594 22.5262 13.0203 22.6667 12.6667 22.6667H10.6667C10.313 22.6667 9.97391 22.5262 9.72386 22.2761C9.47381 22.0261 9.33333 21.687 9.33333 21.3333V19.3333C9.33333 18.9797 9.47381 18.6406 9.72386 18.3905C9.97391 18.1405 10.313 18 10.6667 18H12.6667C13.0203 18 13.3594 18.1405 13.6095 18.3905C13.8595 18.6406 14 18.9797 14 19.3333V21.3333ZM21.3333 16.6667H19.3333C18.6261 16.6667 17.9478 16.9476 17.4477 17.4477C16.9476 17.9478 16.6667 18.6261 16.6667 19.3333V21.3333C16.6667 22.0406 16.9476 22.7189 17.4477 23.219C17.9478 23.719 18.6261 24 19.3333 24H21.3333C22.0406 24 22.7189 23.719 23.219 23.219C23.719 22.7189 24 22.0406 24 21.3333V19.3333C24 18.6261 23.719 17.9478 23.219 17.4477C22.7189 16.9476 22.0406 16.6667 21.3333 16.6667Z" fill="#169F13"/>
</svg>
