<svg width="32" height="32" viewBox="0 0 32 32" fill="none" xmlns="http://www.w3.org/2000/svg">
<rect width="32" height="32" rx="16" fill="#5959AB" fill-opacity="0.08"/>
<path d="M11.3154 22.8444C12.0443 22.0622 13.1554 22.1244 13.7954 22.9778L14.6932 24.1778C15.4132 25.1289 16.5777 25.1289 17.2977 24.1778L18.1954 22.9778C18.8354 22.1244 19.9466 22.0622 20.6754 22.8444C22.2577 24.5333 23.5466 23.9733 23.5466 21.6089V11.5911C23.5554 8.00886 22.7199 7.11108 19.3599 7.11108H12.6399C9.27989 7.11108 8.44434 8.00886 8.44434 11.5911V21.6C8.44434 23.9733 9.74211 24.5244 11.3154 22.8444Z" stroke="#5959AB" stroke-width="1.5" stroke-linecap="round" stroke-linejoin="round"/>
<path d="M12.4443 11.5554H19.5554" stroke="#5959AB" stroke-width="1.5" stroke-linecap="round" stroke-linejoin="round"/>
<path d="M13.3333 15.1111H18.6666" stroke="#5959AB" stroke-width="1.5" stroke-linecap="round" stroke-linejoin="round"/>
</svg>
