<svg width="36" height="36" viewBox="0 0 36 36" fill="none" xmlns="http://www.w3.org/2000/svg">
<rect width="36" height="36" rx="18" fill="#0085FF" fill-opacity="0.08"/>
<path d="M10 25V12.2C10 11.0799 10 10.5198 10.218 10.092C10.4097 9.71569 10.7157 9.40973 11.092 9.21799C11.5198 9 12.0799 9 13.2 9H22.8C23.9201 9 24.4802 9 24.908 9.21799C25.2843 9.40973 25.5903 9.71569 25.782 10.092C26 10.5198 26 11.0799 26 12.2V23H12C10.8954 23 10 23.8954 10 25ZM10 25C10 26.1046 10.8954 27 12 27H26M15 13H21M15 17H21M25 23V27" stroke="#0085FF" stroke-width="1.5" stroke-linecap="round" stroke-linejoin="round"/>
</svg>
