<svg width="16" height="17" viewBox="0 0 16 17" fill="none" xmlns="http://www.w3.org/2000/svg">
<path fill-rule="evenodd" clip-rule="evenodd" d="M3.99996 4.33333C3.53972 4.33333 3.16663 4.70643 3.16663 5.16667V13.1667C3.16663 13.6269 3.53972 14 3.99996 14H12C12.4602 14 12.8333 13.6269 12.8333 13.1667V5.16667C12.8333 4.70643 12.4602 4.33333 12 4.33333H3.99996ZM2.16663 5.16667C2.16663 4.15414 2.98744 3.33333 3.99996 3.33333H12C13.0125 3.33333 13.8333 4.15414 13.8333 5.16667V13.1667C13.8333 14.1792 13.0125 15 12 15H3.99996C2.98744 15 2.16663 14.1792 2.16663 13.1667V5.16667Z" fill="#A0AEC0"/>
<path fill-rule="evenodd" clip-rule="evenodd" d="M10.6666 2C10.9428 2 11.1666 2.22386 11.1666 2.5V5.16667C11.1666 5.44281 10.9428 5.66667 10.6666 5.66667C10.3905 5.66667 10.1666 5.44281 10.1666 5.16667V2.5C10.1666 2.22386 10.3905 2 10.6666 2Z" fill="#A0AEC0"/>
<path fill-rule="evenodd" clip-rule="evenodd" d="M5.33329 2C5.60943 2 5.83329 2.22386 5.83329 2.5V5.16667C5.83329 5.44281 5.60943 5.66667 5.33329 5.66667C5.05715 5.66667 4.83329 5.44281 4.83329 5.16667V2.5C4.83329 2.22386 5.05715 2 5.33329 2Z" fill="#A0AEC0"/>
<path fill-rule="evenodd" clip-rule="evenodd" d="M2.16663 7.83333C2.16663 7.55719 2.39048 7.33333 2.66663 7.33333H13.3333C13.6094 7.33333 13.8333 7.55719 13.8333 7.83333C13.8333 8.10948 13.6094 8.33333 13.3333 8.33333H2.66663C2.39048 8.33333 2.16663 8.10948 2.16663 7.83333Z" fill="#A0AEC0"/>
<path fill-rule="evenodd" clip-rule="evenodd" d="M6.66663 10.5C6.66663 10.1318 6.9651 9.83333 7.33329 9.83333H7.99996C8.36815 9.83333 8.66663 10.1318 8.66663 10.5C8.66663 10.8682 8.36815 11.1667 7.99996 11.1667H7.33329C6.9651 11.1667 6.66663 10.8682 6.66663 10.5Z" fill="#A0AEC0"/>
<path fill-rule="evenodd" clip-rule="evenodd" d="M7.99996 10C8.2761 10 8.49996 10.2239 8.49996 10.5V12.5C8.49996 12.7761 8.2761 13 7.99996 13C7.72382 13 7.49996 12.7761 7.49996 12.5V10.5C7.49996 10.2239 7.72382 10 7.99996 10Z" fill="#A0AEC0"/>
</svg>
