<svg width="32" height="32" viewBox="0 0 32 32" fill="none" xmlns="http://www.w3.org/2000/svg">
<rect width="32" height="32" rx="16" fill="#5959AB" fill-opacity="0.16"/>
<path d="M19.2 12.1111C19.2 11.3878 19.2 11.0261 19.1182 10.7294C18.8963 9.92421 18.2494 9.29526 17.4212 9.07951C17.116 9 16.744 9 16 9C15.256 9 14.884 9 14.5788 9.07951C13.7506 9.29526 13.1037 9.92421 12.8818 10.7294C12.8 11.0261 12.8 11.3878 12.8 12.1111M16.64 20.2778H20.56C20.784 20.2778 20.896 20.2778 20.9816 20.2354C21.0569 20.1981 21.1181 20.1386 21.1564 20.0654C21.2 19.9823 21.2 19.8734 21.2 19.6556V17.7889C21.2 17.5711 21.2 17.4622 21.1564 17.379C21.1181 17.3058 21.0569 17.2463 20.9816 17.2091C20.896 17.1667 20.784 17.1667 20.56 17.1667H16.64C16.416 17.1667 16.304 17.1667 16.2184 17.2091C16.1431 17.2463 16.0819 17.3058 16.0436 17.379C16 17.4622 16 17.5711 16 17.7889V19.6556C16 19.8734 16 19.9823 16.0436 20.0654C16.0819 20.1386 16.1431 20.1981 16.2184 20.2354C16.304 20.2778 16.416 20.2778 16.64 20.2778ZM11.84 23H20.16C21.5041 23 22.1762 23 22.6896 22.7457C23.1412 22.522 23.5083 22.165 23.7384 21.726C24 21.2269 24 20.5735 24 19.2667V15.8444C24 14.5377 24 13.8843 23.7384 13.3851C23.5083 12.9461 23.1412 12.5891 22.6896 12.3654C22.1762 12.1111 21.5041 12.1111 20.16 12.1111H11.84C10.4959 12.1111 9.82381 12.1111 9.31042 12.3654C8.85883 12.5891 8.49168 12.9461 8.26158 13.3851C8 13.8843 8 14.5377 8 15.8444V19.2667C8 20.5735 8 21.2269 8.26158 21.726C8.49168 22.165 8.85883 22.522 9.31042 22.7457C9.82381 23 10.4959 23 11.84 23Z" stroke="#5959AB" stroke-width="2" stroke-linecap="round" stroke-linejoin="round"/>
</svg>
