<svg width="36" height="36" viewBox="0 0 36 36" fill="none" xmlns="http://www.w3.org/2000/svg">
<rect width="36" height="36" rx="18" fill="#5959AB" fill-opacity="0.08"/>
<path d="M12.73 25.7C13.55 24.82 14.8 24.89 15.52 25.85L16.53 27.2C17.34 28.27 18.65 28.27 19.46 27.2L20.47 25.85C21.19 24.89 22.44 24.82 23.26 25.7C25.04 27.6 26.49 26.97 26.49 24.31V13.04C26.5 9.01 25.56 8 21.78 8H14.22C10.44 8 9.5 9.01 9.5 13.04V24.3C9.5 26.97 10.96 27.59 12.73 25.7Z" stroke="#5959AB" stroke-width="1.5" stroke-linecap="round" stroke-linejoin="round"/>
<path d="M14 13H22" stroke="#5959AB" stroke-width="1.5" stroke-linecap="round" stroke-linejoin="round"/>
<path d="M15 17H21" stroke="#5959AB" stroke-width="1.5" stroke-linecap="round" stroke-linejoin="round"/>
</svg>
