<svg width="16" height="17" viewBox="0 0 16 17" fill="none" xmlns="http://www.w3.org/2000/svg">
<path fill-rule="evenodd" clip-rule="evenodd" d="M9.3335 2C9.60964 2 9.8335 2.22386 9.8335 2.5V5.16667C9.8335 5.21087 9.85106 5.25326 9.88231 5.28452C9.91357 5.31577 9.95596 5.33333 10.0002 5.33333H12.6668C12.943 5.33333 13.1668 5.55719 13.1668 5.83333C13.1668 6.10948 12.943 6.33333 12.6668 6.33333H10.0002C9.69074 6.33333 9.394 6.21042 9.17521 5.99162C8.95641 5.77283 8.8335 5.47609 8.8335 5.16667V2.5C8.8335 2.22386 9.05735 2 9.3335 2Z" fill="#A0AEC0"/>
<path fill-rule="evenodd" clip-rule="evenodd" d="M4.66683 3C4.44582 3 4.23385 3.0878 4.07757 3.24408C3.92129 3.40036 3.8335 3.61232 3.8335 3.83333V13.1667C3.8335 13.3877 3.92129 13.5996 4.07757 13.7559C4.23385 13.9122 4.44582 14 4.66683 14H11.3335C11.5545 14 11.7665 13.9122 11.9228 13.7559C12.079 13.5996 12.1668 13.3877 12.1668 13.1667V6.04044L9.12639 3H4.66683ZM3.37047 2.53697C3.71428 2.19315 4.1806 2 4.66683 2H9.3335C9.4661 2 9.59328 2.05268 9.68705 2.14645L13.0204 5.47978C13.1142 5.57355 13.1668 5.70073 13.1668 5.83333V13.1667C13.1668 13.6529 12.9737 14.1192 12.6299 14.463C12.286 14.8068 11.8197 15 11.3335 15H4.66683C4.1806 15 3.71428 14.8068 3.37047 14.463C3.02665 14.1192 2.8335 13.6529 2.8335 13.1667V3.83333C2.8335 3.3471 3.02665 2.88079 3.37047 2.53697Z" fill="#A0AEC0"/>
<path fill-rule="evenodd" clip-rule="evenodd" d="M5.50016 6.5C5.50016 6.22386 5.72402 6 6.00016 6H6.66683C6.94297 6 7.16683 6.22386 7.16683 6.5C7.16683 6.77614 6.94297 7 6.66683 7H6.00016C5.72402 7 5.50016 6.77614 5.50016 6.5Z" fill="#A0AEC0"/>
<path fill-rule="evenodd" clip-rule="evenodd" d="M5.50016 9.16667C5.50016 8.89052 5.72402 8.66667 6.00016 8.66667H10.0002C10.2763 8.66667 10.5002 8.89052 10.5002 9.16667C10.5002 9.44281 10.2763 9.66667 10.0002 9.66667H6.00016C5.72402 9.66667 5.50016 9.44281 5.50016 9.16667Z" fill="#A0AEC0"/>
<path fill-rule="evenodd" clip-rule="evenodd" d="M5.50016 11.8333C5.50016 11.5572 5.72402 11.3333 6.00016 11.3333H10.0002C10.2763 11.3333 10.5002 11.5572 10.5002 11.8333C10.5002 12.1095 10.2763 12.3333 10.0002 12.3333H6.00016C5.72402 12.3333 5.50016 12.1095 5.50016 11.8333Z" fill="#A0AEC0"/>
</svg>
