<svg width="32" height="32" viewBox="0 0 32 32" fill="none" xmlns="http://www.w3.org/2000/svg">
<rect width="32" height="32" rx="16" fill="#5959AB" fill-opacity="0.16"/>
<path fill-rule="evenodd" clip-rule="evenodd" d="M19 9H14C11.7909 9 10 10.7909 10 13V19C10 21.2091 11.7909 23 14 23H19C21.2091 23 23 21.2091 23 19V13C23 10.7909 21.2091 9 19 9Z" stroke="#5959AB" stroke-width="1.5" stroke-linecap="round" stroke-linejoin="round"/>
<path d="M19.5 13.75C19.9142 13.75 20.25 13.4142 20.25 13C20.25 12.5858 19.9142 12.25 19.5 12.25V13.75ZM13.5 12.25C13.0858 12.25 12.75 12.5858 12.75 13C12.75 13.4142 13.0858 13.75 13.5 13.75V12.25ZM19.5 16.75C19.9142 16.75 20.25 16.4142 20.25 16C20.25 15.5858 19.9142 15.25 19.5 15.25V16.75ZM13.5 15.25C13.0858 15.25 12.75 15.5858 12.75 16C12.75 16.4142 13.0858 16.75 13.5 16.75V15.25ZM16.5 19.75C16.9142 19.75 17.25 19.4142 17.25 19C17.25 18.5858 16.9142 18.25 16.5 18.25V19.75ZM13.5 18.25C13.0858 18.25 12.75 18.5858 12.75 19C12.75 19.4142 13.0858 19.75 13.5 19.75V18.25ZM19.5 12.25H13.5V13.75H19.5V12.25ZM19.5 15.25H13.5V16.75H19.5V15.25ZM16.5 18.25H13.5V19.75H16.5V18.25Z" fill="#5959AB"/>
</svg>
