<svg width="32" height="32" viewBox="0 0 32 32" fill="none" xmlns="http://www.w3.org/2000/svg">
<rect width="32" height="32" rx="16" fill="#27A566" fill-opacity="0.08"/>
<path d="M8.66663 22.4167V10.6833C8.66663 9.65657 8.66663 9.14319 8.86645 8.75102C9.04222 8.40605 9.32268 8.12559 9.66764 7.94982C10.0598 7.75 10.5732 7.75 11.6 7.75H20.4C21.4267 7.75 21.9401 7.75 22.3323 7.94982C22.6772 8.12559 22.9577 8.40605 23.1335 8.75102C23.3333 9.14319 23.3333 9.65657 23.3333 10.6833V20.5833H10.5C9.48744 20.5833 8.66663 21.4041 8.66663 22.4167ZM8.66663 22.4167C8.66663 23.4292 9.48744 24.25 10.5 24.25H23.3333M13.25 11.4167H18.75M13.25 15.0833H18.75M22.4166 20.5833V24.25" stroke="#27A566" stroke-width="1.5" stroke-linecap="round" stroke-linejoin="round"/>
</svg>
