<svg width="266" height="166" viewBox="0 0 266 166" fill="none" xmlns="http://www.w3.org/2000/svg">
<path d="M92.0686 9.64922C92.0686 13.8267 98.7644 17.2132 94.105 17.2132C89.4456 17.2132 85.6685 13.8267 85.6685 9.64922C85.6685 5.47173 89.4456 2.08521 94.105 2.08521C98.7644 2.08521 92.0686 5.47173 92.0686 9.64922Z" fill="#FE964A"/>
<path d="M158.23 6L159.362 9.4844H163.026L160.062 11.6379L161.194 15.1223L158.23 12.9688L155.266 15.1223L156.398 11.6379L153.434 9.4844H157.098L158.23 6Z" fill="#FE964A"/>
<path d="M34.3784 79.6552C34.3784 79.6552 45.1265 74.3019 47.5648 77.1078C48.9043 78.6493 49.9159 80.5163 48.7162 82.0332C47.7914 83.2025 46.4563 83.3516 44.8919 83.0768C41.5791 82.495 41.6293 77.8946 42.9591 75.0454C44.7952 71.1116 54.5417 73.4335 54.5417 73.4335" stroke="#0BA259" stroke-width="2.01707"/>
<circle cx="229.217" cy="74.2923" r="5.88312" fill="#FFEDEC"/>
<path d="M56.0474 135.991L56.8844 128.771L62.7199 132.47L63.3851 126.414L68.7079 130.08L70.3656 123.533" stroke="#2F78EE" stroke-width="1.68089"/>
<path d="M193.301 21.9249C193.301 21.9249 192.482 17.0642 194.831 16.0954C196.803 15.2815 198.514 18.8808 200.135 17.5759C201.777 16.2541 197.678 14.1601 199.013 12.5791C200.418 10.9152 204.929 12.5791 204.929 12.5791" stroke="#2F78EE" stroke-width="2.01707"/>
<path d="M32.9547 14.6397L54.5611 25.396L49.1608 32.7602L32.9547 14.6397Z" fill="#2F78EE"/>
<circle cx="224.346" cy="94.3126" r="2.52134" fill="#FFEDEC"/>
<path d="M200.116 127.502C202.887 127.781 205.58 123.565 205.269 126.656C204.958 129.747 202.46 132.026 199.689 131.747C196.918 131.468 194.924 128.737 195.235 125.646C195.546 122.555 197.345 127.223 200.116 127.502Z" fill="#2F78EE"/>
<path d="M209.11 38.9929L210.997 44.8003H217.103L212.163 48.3894L214.05 54.1967L209.11 50.6076L204.17 54.1967L206.057 48.3894L201.117 44.8003H207.223L209.11 38.9929Z" fill="#0BA259"/>
<rect x="82.7998" y="25.823" width="100" height="100" rx="50" fill="#27A376"/>
<g filter="url(#filter0_d_464_21085)">
<rect x="102.8" y="45.823" width="60" height="60" rx="30" fill="white" shape-rendering="crispEdges"/>
<path fill-rule="evenodd" clip-rule="evenodd" d="M143.684 68.6891C144.172 69.1773 144.172 69.9687 143.684 70.4569L131.184 82.9569C130.696 83.445 129.904 83.445 129.416 82.9569L123.166 76.7069C122.678 76.2187 122.678 75.4273 123.166 74.9391C123.654 74.451 124.446 74.451 124.934 74.9391L130.3 80.3052L141.916 68.6891C142.404 68.201 143.196 68.201 143.684 68.6891Z" fill="#111827"/>
</g>
<defs>
<filter id="filter0_d_464_21085" x="62.7998" y="25.823" width="140" height="140" filterUnits="userSpaceOnUse" color-interpolation-filters="sRGB">
<feFlood flood-opacity="0" result="BackgroundImageFix"/>
<feColorMatrix in="SourceAlpha" type="matrix" values="0 0 0 0 0 0 0 0 0 0 0 0 0 0 0 0 0 0 127 0" result="hardAlpha"/>
<feOffset dy="20"/>
<feGaussianBlur stdDeviation="20"/>
<feComposite in2="hardAlpha" operator="out"/>
<feColorMatrix type="matrix" values="0 0 0 0 0 0 0 0 0 0 0 0 0 0 0 0 0 0 0.3 0"/>
<feBlend mode="normal" in2="BackgroundImageFix" result="effect1_dropShadow_464_21085"/>
<feBlend mode="normal" in="SourceGraphic" in2="effect1_dropShadow_464_21085" result="shape"/>
</filter>
</defs>
</svg>
